<svg xmlns="http://www.w3.org/2000/svg" viewBox="0 0 512 512" id="confetti">
  <path fill="#97d729" d="M103 138.74a7.47 7.47 0 0 1-5.3-2.19c-8.08-8.08-6.9-17.45-6-24.28.82-6.46.88-9.15-1.75-11.79s-5.33-2.57-11.79-1.75c-6.84.87-16.2 2-24.28-6s-6.89-17.44-6-24.27c.82-6.47.88-9.16-1.75-11.79s-5.33-2.57-11.79-1.75c-6.83.87-16.2 2-24.28-6S3.08 31.42 4 24.59c.82-6.46.88-9.15-1.75-11.79A7.5 7.5 0 0 1 12.8 2.2c8.08 8.08 6.9 17.44 6 24.27-.8 6.47-.8 9.16 1.78 11.79S25.9 40.83 32.36 40c6.84-.87 16.2-2 24.28 6s6.89 17.44 6 24.27c-.82 6.46-.88 9.15 1.75 11.79s5.32 2.57 11.78 1.75c6.84-.87 16.2-2 24.28 6s6.9 17.44 6 24.27c-.82 6.47-.88 9.16 1.75 11.79a7.5 7.5 0 0 1-5.3 12.8Z"></path>
  <path fill="#fac600" d="M380.76 110.46a7.5 7.5 0 0 1-5.31-12.8c8.08-8.08 17.44-6.9 24.28-6 6.46.82 9.15.88 11.79-1.75s2.57-5.33 1.75-11.79c-.87-6.84-2-16.2 6-24.28s17.44-6.89 24.27-6c6.47.82 9.16.88 11.79-1.75s2.57-5.33 1.75-11.79c-.87-6.84-2.05-16.2 6-24.28s17.44-6.89 24.27-6c6.47.82 9.15.88 11.79-1.75a7.5 7.5 0 0 1 10.6 10.6c-8.08 8.08-17.44 6.9-24.27 6-6.46-.82-9.16-.88-11.79 1.75s-2.51 5.28-1.68 11.74c.87 6.84 2.05 16.2-6 24.28s-17.44 6.89-24.27 6c-6.46-.82-9.15-.88-11.79 1.75s-2.57 5.32-1.75 11.78c.87 6.84 2.05 16.2-6 24.28s-17.44 6.9-24.27 6c-6.47-.82-9.16-.88-11.79 1.75a7.44 7.44 0 0 1-5.37 2.26Z"></path>
  <path fill="#fd4755" d="M504.5 512a7.44 7.44 0 0 1-5.3-2.2c-8.08-8.08-6.9-17.44-6-24.28.82-6.46.88-9.15-1.75-11.78s-5.33-2.57-11.79-1.75c-6.83.86-16.2 2.05-24.28-6s-6.89-17.44-6-24.28c.82-6.46.88-9.15-1.75-11.78s-5.33-2.57-11.79-1.75c-6.83.86-16.2 2.05-24.28-6s-6.89-17.44-6-24.28c.82-6.46.88-9.15-1.75-11.78a7.5 7.5 0 1 1 10.6-10.61c8.08 8.08 6.9 17.44 6 24.28-.82 6.46-.88 9.15 1.75 11.78s5.32 2.58 11.78 1.76c6.84-.87 16.2-2.06 24.28 6s6.89 17.44 6 24.28c-.82 6.46-.88 9.15 1.75 11.78s5.32 2.57 11.79 1.76c6.83-.87 16.19-2.06 24.27 6s6.9 17.44 6 24.28c-.82 6.46-.88 9.15 1.75 11.79a7.5 7.5 0 0 1-5.3 12.8Z"></path>
  <path fill="#97d729" d="M7.5 512a7.5 7.5 0 0 1-5.3-12.8c8.08-8.08 17.44-6.89 24.27-6 6.47.82 9.16.88 11.79-1.75s2.57-5.33 1.75-11.79c-.86-6.84-2-16.2 6-24.28s17.44-6.89 24.28-6c6.46.82 9.15.88 11.78-1.75s2.57-5.33 1.75-11.79c-.86-6.83-2-16.2 6-24.28s17.44-6.89 24.28-6c6.46.82 9.15.88 11.78-1.75a7.5 7.5 0 1 1 10.61 10.6c-8.08 8.08-17.44 6.9-24.28 6-6.46-.82-9.15-.88-11.78 1.75s-2.57 5.32-1.76 11.78c.87 6.84 2.06 16.2-6 24.28s-17.44 6.89-24.28 6c-6.46-.82-9.15-.88-11.78 1.75s-2.57 5.32-1.76 11.79c.87 6.83 2.06 16.19-6 24.27s-17.44 6.89-24.28 6c-6.46-.82-9.15-.88-11.79 1.75A7.44 7.44 0 0 1 7.5 512Z"></path>
  <circle cx="256" cy="34.5" r="27" fill="#fac600"></circle>
  <circle cx="34.5" cy="175.5" r="27" fill="#26a6fe"></circle>
  <circle cx="477.5" cy="286" r="27" fill="#fd4755"></circle>
  <circle cx="256" cy="477.5" r="27" fill="#26a6fe"></circle>
  <circle cx="34.5" cy="353.76" r="27" fill="#97d729"></circle>
  <path fill="#fac600" d="M442.62 171.67a7.51 7.51 0 0 1-6.06-11.91l23.86-32.92a7.5 7.5 0 1 1 12.14 8.81l-23.86 32.92a7.51 7.51 0 0 1-6.08 3.1zm-360 105a7.51 7.51 0 0 1-6.06-11.91l23.86-32.92a7.5 7.5 0 1 1 12.14 8.81L88.7 273.57a7.51 7.51 0 0 1-6.08 3.1zm263.87-180a7.48 7.48 0 0 1-6.07-3.1l-23.86-32.92a7.5 7.5 0 1 1 12.14-8.81l23.86 32.92a7.51 7.51 0 0 1-6.07 11.91z"></path>
  <path fill="#26a6fe" d="M122.27 85.46a7.51 7.51 0 0 1-6.07-11.9l23.86-32.92a7.5 7.5 0 0 1 12.15 8.8l-23.86 32.92a7.48 7.48 0 0 1-6.08 3.1Z"></path>
  <path fill="#fd4755" d="M289.7 195.19a7.48 7.48 0 0 1-6.08-3.1l-23.86-32.92a7.5 7.5 0 1 1 12.14-8.81l23.86 32.92a7.51 7.51 0 0 1-6.06 11.91Z"></path>
  <path fill="#97d729" d="M211.49 426.67a7.48 7.48 0 0 1-6.07-3.1l-23.86-32.92a7.5 7.5 0 1 1 12.14-8.81l23.86 32.92a7.51 7.51 0 0 1-6.07 11.91zm132.02-83.07a7.51 7.51 0 0 1-6.07-11.91l23.86-32.92a7.5 7.5 0 0 1 12.15 8.81l-23.86 32.92a7.51 7.51 0 0 1-6.08 3.1z"></path>
  <path fill="#26a6fe" d="m266.11 245.74 6.21 12.58a5 5 0 0 0 3.76 2.74l13.89 2a5 5 0 0 1 2.77 8.53l-10.05 9.8a5 5 0 0 0-1.44 4.42l2.38 13.83a5 5 0 0 1-7.26 5.27L264 298.39a5 5 0 0 0-4.65 0l-12.42 6.53a5 5 0 0 1-7.25-5.27l2.32-13.83a5 5 0 0 0-1.44-4.42l-10-9.8a5 5 0 0 1 2.77-8.53l13.88-2a5 5 0 0 0 3.76-2.74l6.21-12.58a5 5 0 0 1 8.93-.01Z"></path>
  <path fill="#97d729" d="m410.53 174 6.21 12.58a5 5 0 0 0 3.76 2.74l13.88 2a5 5 0 0 1 2.77 8.52l-10 9.8a5 5 0 0 0-1.44 4.42l2.29 13.86a5 5 0 0 1-7.25 5.27l-12.42-6.53a5 5 0 0 0-4.65 0l-12.42 6.53a5 5 0 0 1-7.26-5.27l2.38-13.83a5 5 0 0 0-1.44-4.42l-10.05-9.8a5 5 0 0 1 2.77-8.52l13.89-2a5 5 0 0 0 3.76-2.74l6.25-12.61a5 5 0 0 1 8.97 0Z"></path>
  <path fill="#fd4755" d="m209.17 80.23 6.21 12.58a5 5 0 0 0 3.76 2.73l13.89 2a5 5 0 0 1 2.77 8.53l-10.05 9.79a5 5 0 0 0-1.44 4.43l2.37 13.82a5 5 0 0 1-7.25 5.28L207 132.88a5 5 0 0 0-4.65 0l-12.42 6.53a5 5 0 0 1-7.25-5.28l2.37-13.82a5 5 0 0 0-1.44-4.43l-10.05-9.79a5 5 0 0 1 2.77-8.53l13.89-2a5 5 0 0 0 3.78-2.75l6.21-12.58a5 5 0 0 1 8.96 0zm-73.44 210.92 6.21 12.58a5 5 0 0 0 3.76 2.73l13.88 2a5 5 0 0 1 2.78 8.53l-10.05 9.79a5 5 0 0 0-1.44 4.43l2.37 13.82a5 5 0 0 1-7.25 5.27l-12.42-6.52a5 5 0 0 0-4.65 0l-12.42 6.52a5 5 0 0 1-7.26-5.27l2.38-13.82a5 5 0 0 0-1.44-4.43L100.13 317a5 5 0 0 1 2.77-8.53l13.89-2a5 5 0 0 0 3.76-2.73l6.21-12.58a5 5 0 0 1 8.97-.01z"></path>
  <path fill="#fac600" d="m364.66 428.28 6.21 12.58a5 5 0 0 0 3.76 2.74l13.89 2a5 5 0 0 1 2.77 8.52l-10.05 9.8a5 5 0 0 0-1.44 4.42l2.38 13.83a5 5 0 0 1-7.26 5.27l-12.42-6.53a5 5 0 0 0-4.65 0l-12.42 6.53a5 5 0 0 1-7.25-5.27l2.37-13.83a5 5 0 0 0-1.44-4.42l-10.05-9.8a5 5 0 0 1 2.78-8.52l13.88-2a5 5 0 0 0 3.76-2.74l6.21-12.58a5 5 0 0 1 8.97 0Z"></path>
</svg>
